<mxfile host="Electron" agent="Mozilla/5.0 (Macintosh; Intel Mac OS X 10_15_7) AppleWebKit/537.36 (KHTML, like Gecko) draw.io/27.0.9 Chrome/134.0.6998.205 Electron/35.4.0 Safari/537.36" version="27.0.9">
  <diagram name="第 1 页" id="72NQMSpgFmSUnzaSWDjX">
    <mxGraphModel dx="946" dy="625" grid="1" gridSize="10" guides="1" tooltips="1" connect="1" arrows="1" fold="1" page="1" pageScale="1" pageWidth="827" pageHeight="1169" math="0" shadow="0">
      <root>
        <mxCell id="0" />
        <mxCell id="1" parent="0" />
        <mxCell id="RkWINZ1G4t5Q9_aCeAs2-4" value="读者" style="html=1;dashed=0;whiteSpace=wrap;" parent="1" vertex="1">
          <mxGeometry x="320" y="100" width="100" height="30" as="geometry" />
        </mxCell>
        <mxCell id="RkWINZ1G4t5Q9_aCeAs2-5" value="处理查询请求" style="shape=ellipse;html=1;dashed=0;whiteSpace=wrap;perimeter=ellipsePerimeter;" parent="1" vertex="1">
          <mxGeometry x="90" y="230" width="100" height="50" as="geometry" />
        </mxCell>
        <mxCell id="RkWINZ1G4t5Q9_aCeAs2-6" value="图书信息表" style="html=1;dashed=0;whiteSpace=wrap;shape=partialRectangle;right=0;" parent="1" vertex="1">
          <mxGeometry x="60" y="390" width="100" height="30" as="geometry" />
        </mxCell>
        <mxCell id="RkWINZ1G4t5Q9_aCeAs2-7" value="" style="endArrow=classic;html=1;rounded=0;exitX=0.5;exitY=1;exitDx=0;exitDy=0;entryX=0.5;entryY=0;entryDx=0;entryDy=0;" parent="1" source="RkWINZ1G4t5Q9_aCeAs2-5" target="RkWINZ1G4t5Q9_aCeAs2-6" edge="1">
          <mxGeometry width="50" height="50" relative="1" as="geometry">
            <mxPoint x="230" y="330" as="sourcePoint" />
            <mxPoint x="280" y="280" as="targetPoint" />
          </mxGeometry>
        </mxCell>
        <mxCell id="RkWINZ1G4t5Q9_aCeAs2-8" value="" style="endArrow=classic;html=1;rounded=0;exitX=0.5;exitY=1;exitDx=0;exitDy=0;entryX=0.42;entryY=0;entryDx=0;entryDy=0;entryPerimeter=0;" parent="1" source="RkWINZ1G4t5Q9_aCeAs2-4" target="RkWINZ1G4t5Q9_aCeAs2-5" edge="1">
          <mxGeometry width="50" height="50" relative="1" as="geometry">
            <mxPoint x="220" y="210" as="sourcePoint" />
            <mxPoint x="270" y="160" as="targetPoint" />
          </mxGeometry>
        </mxCell>
        <mxCell id="RkWINZ1G4t5Q9_aCeAs2-34" value="查询条件" style="edgeLabel;html=1;align=center;verticalAlign=middle;resizable=0;points=[];" parent="RkWINZ1G4t5Q9_aCeAs2-8" vertex="1" connectable="0">
          <mxGeometry x="0.0061" y="-1" relative="1" as="geometry">
            <mxPoint x="-20" y="-9" as="offset" />
          </mxGeometry>
        </mxCell>
        <mxCell id="RkWINZ1G4t5Q9_aCeAs2-11" value="处理借书请求" style="shape=ellipse;html=1;dashed=0;whiteSpace=wrap;perimeter=ellipsePerimeter;" parent="1" vertex="1">
          <mxGeometry x="320" y="230" width="100" height="50" as="geometry" />
        </mxCell>
        <mxCell id="RkWINZ1G4t5Q9_aCeAs2-12" value="" style="endArrow=classic;html=1;rounded=0;entryX=0.36;entryY=0;entryDx=0;entryDy=0;entryPerimeter=0;exitX=0.61;exitY=0.967;exitDx=0;exitDy=0;exitPerimeter=0;" parent="1" source="RkWINZ1G4t5Q9_aCeAs2-4" target="RkWINZ1G4t5Q9_aCeAs2-11" edge="1">
          <mxGeometry width="50" height="50" relative="1" as="geometry">
            <mxPoint x="380" y="140" as="sourcePoint" />
            <mxPoint x="430" y="170" as="targetPoint" />
          </mxGeometry>
        </mxCell>
        <mxCell id="RkWINZ1G4t5Q9_aCeAs2-38" value="借书请求" style="edgeLabel;html=1;align=center;verticalAlign=middle;resizable=0;points=[];" parent="RkWINZ1G4t5Q9_aCeAs2-12" vertex="1" connectable="0">
          <mxGeometry x="0.0815" relative="1" as="geometry">
            <mxPoint x="-1" as="offset" />
          </mxGeometry>
        </mxCell>
        <mxCell id="RkWINZ1G4t5Q9_aCeAs2-13" value="查询图书信息" style="text;html=1;align=center;verticalAlign=middle;resizable=0;points=[];autosize=1;strokeColor=none;fillColor=none;" parent="1" vertex="1">
          <mxGeometry x="100" y="320" width="100" height="30" as="geometry" />
        </mxCell>
        <mxCell id="RkWINZ1G4t5Q9_aCeAs2-14" value="" style="endArrow=classic;html=1;rounded=0;exitX=0.38;exitY=1.02;exitDx=0;exitDy=0;exitPerimeter=0;entryX=0.75;entryY=0;entryDx=0;entryDy=0;" parent="1" source="RkWINZ1G4t5Q9_aCeAs2-11" target="RkWINZ1G4t5Q9_aCeAs2-6" edge="1">
          <mxGeometry width="50" height="50" relative="1" as="geometry">
            <mxPoint x="390" y="370" as="sourcePoint" />
            <mxPoint x="440" y="320" as="targetPoint" />
          </mxGeometry>
        </mxCell>
        <mxCell id="RkWINZ1G4t5Q9_aCeAs2-16" value="查询图书信息&lt;div&gt;更新库存&lt;/div&gt;" style="edgeLabel;html=1;align=center;verticalAlign=middle;resizable=0;points=[];" parent="RkWINZ1G4t5Q9_aCeAs2-14" vertex="1" connectable="0">
          <mxGeometry x="-0.1678" relative="1" as="geometry">
            <mxPoint as="offset" />
          </mxGeometry>
        </mxCell>
        <mxCell id="RkWINZ1G4t5Q9_aCeAs2-17" value="处理还书请求" style="shape=ellipse;html=1;dashed=0;whiteSpace=wrap;perimeter=ellipsePerimeter;" parent="1" vertex="1">
          <mxGeometry x="600" y="240" width="100" height="50" as="geometry" />
        </mxCell>
        <mxCell id="RkWINZ1G4t5Q9_aCeAs2-18" value="" style="endArrow=classic;html=1;rounded=0;exitX=0.86;exitY=1;exitDx=0;exitDy=0;exitPerimeter=0;entryX=0.5;entryY=0;entryDx=0;entryDy=0;" parent="1" source="RkWINZ1G4t5Q9_aCeAs2-4" target="RkWINZ1G4t5Q9_aCeAs2-17" edge="1">
          <mxGeometry width="50" height="50" relative="1" as="geometry">
            <mxPoint x="470" y="190" as="sourcePoint" />
            <mxPoint x="520" y="140" as="targetPoint" />
          </mxGeometry>
        </mxCell>
        <mxCell id="RkWINZ1G4t5Q9_aCeAs2-42" value="还书请求" style="edgeLabel;html=1;align=center;verticalAlign=middle;resizable=0;points=[];" parent="RkWINZ1G4t5Q9_aCeAs2-18" vertex="1" connectable="0">
          <mxGeometry x="-0.1276" y="4" relative="1" as="geometry">
            <mxPoint x="26" as="offset" />
          </mxGeometry>
        </mxCell>
        <mxCell id="RkWINZ1G4t5Q9_aCeAs2-19" value="" style="endArrow=classic;html=1;rounded=0;exitX=0.28;exitY=0.94;exitDx=0;exitDy=0;exitPerimeter=0;entryX=0.89;entryY=0.033;entryDx=0;entryDy=0;entryPerimeter=0;" parent="1" source="RkWINZ1G4t5Q9_aCeAs2-17" target="RkWINZ1G4t5Q9_aCeAs2-6" edge="1">
          <mxGeometry width="50" height="50" relative="1" as="geometry">
            <mxPoint x="410" y="420" as="sourcePoint" />
            <mxPoint x="460" y="370" as="targetPoint" />
          </mxGeometry>
        </mxCell>
        <mxCell id="RkWINZ1G4t5Q9_aCeAs2-20" value="更新库存" style="edgeLabel;html=1;align=center;verticalAlign=middle;resizable=0;points=[];" parent="RkWINZ1G4t5Q9_aCeAs2-19" vertex="1" connectable="0">
          <mxGeometry x="-0.0292" y="-1" relative="1" as="geometry">
            <mxPoint x="-75" y="13" as="offset" />
          </mxGeometry>
        </mxCell>
        <mxCell id="RkWINZ1G4t5Q9_aCeAs2-21" value="借阅记录表" style="html=1;dashed=0;whiteSpace=wrap;shape=partialRectangle;right=0;" parent="1" vertex="1">
          <mxGeometry x="510" y="390" width="100" height="30" as="geometry" />
        </mxCell>
        <mxCell id="RkWINZ1G4t5Q9_aCeAs2-22" value="" style="endArrow=classic;html=1;rounded=0;exitX=0.5;exitY=1;exitDx=0;exitDy=0;entryX=0.58;entryY=-0.1;entryDx=0;entryDy=0;entryPerimeter=0;" parent="1" source="RkWINZ1G4t5Q9_aCeAs2-17" target="RkWINZ1G4t5Q9_aCeAs2-21" edge="1">
          <mxGeometry width="50" height="50" relative="1" as="geometry">
            <mxPoint x="540" y="370" as="sourcePoint" />
            <mxPoint x="590" y="320" as="targetPoint" />
          </mxGeometry>
        </mxCell>
        <mxCell id="RkWINZ1G4t5Q9_aCeAs2-25" value="更新归还状态&lt;div&gt;&lt;br&gt;&lt;/div&gt;" style="edgeLabel;html=1;align=center;verticalAlign=middle;resizable=0;points=[];" parent="RkWINZ1G4t5Q9_aCeAs2-22" vertex="1" connectable="0">
          <mxGeometry x="-0.1968" relative="1" as="geometry">
            <mxPoint as="offset" />
          </mxGeometry>
        </mxCell>
        <mxCell id="RkWINZ1G4t5Q9_aCeAs2-23" value="" style="endArrow=classic;html=1;rounded=0;exitX=0.64;exitY=0.98;exitDx=0;exitDy=0;exitPerimeter=0;" parent="1" source="RkWINZ1G4t5Q9_aCeAs2-11" target="RkWINZ1G4t5Q9_aCeAs2-21" edge="1">
          <mxGeometry width="50" height="50" relative="1" as="geometry">
            <mxPoint x="570" y="500" as="sourcePoint" />
            <mxPoint x="620" y="450" as="targetPoint" />
          </mxGeometry>
        </mxCell>
        <mxCell id="RkWINZ1G4t5Q9_aCeAs2-24" value="记录借阅信息" style="edgeLabel;html=1;align=center;verticalAlign=middle;resizable=0;points=[];" parent="RkWINZ1G4t5Q9_aCeAs2-23" vertex="1" connectable="0">
          <mxGeometry x="-0.0213" y="2" relative="1" as="geometry">
            <mxPoint x="11" y="11" as="offset" />
          </mxGeometry>
        </mxCell>
        <mxCell id="RkWINZ1G4t5Q9_aCeAs2-27" value="读者信息表" style="html=1;dashed=0;whiteSpace=wrap;shape=partialRectangle;right=0;" parent="1" vertex="1">
          <mxGeometry x="330" y="390" width="100" height="30" as="geometry" />
        </mxCell>
        <mxCell id="RkWINZ1G4t5Q9_aCeAs2-28" value="" style="endArrow=classic;html=1;rounded=0;exitX=0.57;exitY=1.06;exitDx=0;exitDy=0;exitPerimeter=0;entryX=0.5;entryY=0;entryDx=0;entryDy=0;" parent="1" source="RkWINZ1G4t5Q9_aCeAs2-11" target="RkWINZ1G4t5Q9_aCeAs2-27" edge="1">
          <mxGeometry width="50" height="50" relative="1" as="geometry">
            <mxPoint x="240" y="520" as="sourcePoint" />
            <mxPoint x="290" y="470" as="targetPoint" />
          </mxGeometry>
        </mxCell>
        <mxCell id="RkWINZ1G4t5Q9_aCeAs2-29" value="验证读者信息" style="edgeLabel;html=1;align=center;verticalAlign=middle;resizable=0;points=[];" parent="RkWINZ1G4t5Q9_aCeAs2-28" vertex="1" connectable="0">
          <mxGeometry x="0.2342" y="1" relative="1" as="geometry">
            <mxPoint x="10" y="11" as="offset" />
          </mxGeometry>
        </mxCell>
        <mxCell id="RkWINZ1G4t5Q9_aCeAs2-31" value="管理员" style="html=1;dashed=0;whiteSpace=wrap;" parent="1" vertex="1">
          <mxGeometry x="520" y="560" width="100" height="50" as="geometry" />
        </mxCell>
        <mxCell id="RkWINZ1G4t5Q9_aCeAs2-32" value="" style="endArrow=classic;html=1;rounded=0;exitX=0.5;exitY=1;exitDx=0;exitDy=0;entryX=0.43;entryY=0.01;entryDx=0;entryDy=0;entryPerimeter=0;" parent="1" source="RkWINZ1G4t5Q9_aCeAs2-21" target="RkWINZ1G4t5Q9_aCeAs2-31" edge="1">
          <mxGeometry width="50" height="50" relative="1" as="geometry">
            <mxPoint x="520" y="560" as="sourcePoint" />
            <mxPoint x="690" y="510" as="targetPoint" />
          </mxGeometry>
        </mxCell>
        <mxCell id="RkWINZ1G4t5Q9_aCeAs2-33" value="统计借阅信息" style="edgeLabel;html=1;align=center;verticalAlign=middle;resizable=0;points=[];" parent="RkWINZ1G4t5Q9_aCeAs2-32" vertex="1" connectable="0">
          <mxGeometry x="-0.0445" y="2" relative="1" as="geometry">
            <mxPoint as="offset" />
          </mxGeometry>
        </mxCell>
        <mxCell id="RkWINZ1G4t5Q9_aCeAs2-35" value="" style="endArrow=classic;html=1;rounded=0;entryX=0.41;entryY=0.95;entryDx=0;entryDy=0;entryPerimeter=0;" parent="1" source="RkWINZ1G4t5Q9_aCeAs2-5" edge="1">
          <mxGeometry width="50" height="50" relative="1" as="geometry">
            <mxPoint x="270" y="234" as="sourcePoint" />
            <mxPoint x="377.94" y="130" as="targetPoint" />
          </mxGeometry>
        </mxCell>
        <mxCell id="RkWINZ1G4t5Q9_aCeAs2-37" value="图书信息" style="edgeLabel;html=1;align=center;verticalAlign=middle;resizable=0;points=[];" parent="RkWINZ1G4t5Q9_aCeAs2-35" vertex="1" connectable="0">
          <mxGeometry x="-0.2581" y="2" relative="1" as="geometry">
            <mxPoint x="11" y="14" as="offset" />
          </mxGeometry>
        </mxCell>
        <mxCell id="RkWINZ1G4t5Q9_aCeAs2-39" value="" style="endArrow=classic;html=1;rounded=0;entryX=0.75;entryY=1;entryDx=0;entryDy=0;exitX=0.93;exitY=0.17;exitDx=0;exitDy=0;exitPerimeter=0;" parent="1" source="RkWINZ1G4t5Q9_aCeAs2-11" target="RkWINZ1G4t5Q9_aCeAs2-4" edge="1">
          <mxGeometry width="50" height="50" relative="1" as="geometry">
            <mxPoint x="180" y="580" as="sourcePoint" />
            <mxPoint x="230" y="530" as="targetPoint" />
          </mxGeometry>
        </mxCell>
        <mxCell id="RkWINZ1G4t5Q9_aCeAs2-40" value="借阅结果" style="edgeLabel;html=1;align=center;verticalAlign=middle;resizable=0;points=[];" parent="RkWINZ1G4t5Q9_aCeAs2-39" vertex="1" connectable="0">
          <mxGeometry x="0.0493" relative="1" as="geometry">
            <mxPoint x="10" y="29" as="offset" />
          </mxGeometry>
        </mxCell>
        <mxCell id="RkWINZ1G4t5Q9_aCeAs2-41" value="" style="endArrow=classic;html=1;rounded=0;entryX=0.83;entryY=1.117;entryDx=0;entryDy=0;entryPerimeter=0;exitX=0.24;exitY=0.09;exitDx=0;exitDy=0;exitPerimeter=0;" parent="1" source="RkWINZ1G4t5Q9_aCeAs2-17" target="RkWINZ1G4t5Q9_aCeAs2-4" edge="1">
          <mxGeometry width="50" height="50" relative="1" as="geometry">
            <mxPoint x="220" y="610" as="sourcePoint" />
            <mxPoint x="270" y="560" as="targetPoint" />
          </mxGeometry>
        </mxCell>
        <mxCell id="RkWINZ1G4t5Q9_aCeAs2-43" value="还书结果" style="edgeLabel;html=1;align=center;verticalAlign=middle;resizable=0;points=[];" parent="RkWINZ1G4t5Q9_aCeAs2-41" vertex="1" connectable="0">
          <mxGeometry x="-0.0814" y="1" relative="1" as="geometry">
            <mxPoint x="-12" y="6" as="offset" />
          </mxGeometry>
        </mxCell>
        <mxCell id="nxbGZsxzQlJPxJBwquyM-1" value="处理逾期罚款" style="shape=ellipse;html=1;dashed=0;whiteSpace=wrap;perimeter=ellipsePerimeter;" vertex="1" parent="1">
          <mxGeometry x="720" y="300" width="100" height="50" as="geometry" />
        </mxCell>
        <mxCell id="nxbGZsxzQlJPxJBwquyM-2" value="" style="endArrow=classic;html=1;rounded=0;exitX=1;exitY=1;exitDx=0;exitDy=0;" edge="1" parent="1" source="RkWINZ1G4t5Q9_aCeAs2-17" target="nxbGZsxzQlJPxJBwquyM-1">
          <mxGeometry width="50" height="50" relative="1" as="geometry">
            <mxPoint x="280" y="550" as="sourcePoint" />
            <mxPoint x="330" y="510" as="targetPoint" />
          </mxGeometry>
        </mxCell>
        <mxCell id="nxbGZsxzQlJPxJBwquyM-3" value="检查逾期" style="edgeLabel;html=1;align=center;verticalAlign=middle;resizable=0;points=[];" vertex="1" connectable="0" parent="nxbGZsxzQlJPxJBwquyM-2">
          <mxGeometry x="-0.084" relative="1" as="geometry">
            <mxPoint as="offset" />
          </mxGeometry>
        </mxCell>
        <mxCell id="nxbGZsxzQlJPxJBwquyM-4" value="逾期罚款记录表" style="html=1;dashed=0;whiteSpace=wrap;shape=partialRectangle;right=0;" vertex="1" parent="1">
          <mxGeometry x="700" y="420" width="100" height="30" as="geometry" />
        </mxCell>
        <mxCell id="nxbGZsxzQlJPxJBwquyM-5" value="" style="endArrow=classic;html=1;rounded=0;exitX=0.5;exitY=1;exitDx=0;exitDy=0;entryX=0.38;entryY=0.067;entryDx=0;entryDy=0;entryPerimeter=0;" edge="1" parent="1" source="nxbGZsxzQlJPxJBwquyM-1" target="nxbGZsxzQlJPxJBwquyM-4">
          <mxGeometry width="50" height="50" relative="1" as="geometry">
            <mxPoint x="650" y="550" as="sourcePoint" />
            <mxPoint x="700" y="500" as="targetPoint" />
          </mxGeometry>
        </mxCell>
        <mxCell id="nxbGZsxzQlJPxJBwquyM-6" value="" style="endArrow=classic;html=1;rounded=0;exitX=0.42;exitY=1.033;exitDx=0;exitDy=0;exitPerimeter=0;entryX=0.83;entryY=-0.02;entryDx=0;entryDy=0;entryPerimeter=0;" edge="1" parent="1" source="nxbGZsxzQlJPxJBwquyM-4" target="RkWINZ1G4t5Q9_aCeAs2-31">
          <mxGeometry width="50" height="50" relative="1" as="geometry">
            <mxPoint x="700" y="590" as="sourcePoint" />
            <mxPoint x="750" y="540" as="targetPoint" />
          </mxGeometry>
        </mxCell>
        <mxCell id="nxbGZsxzQlJPxJBwquyM-7" value="统计罚款信息" style="edgeLabel;html=1;align=center;verticalAlign=middle;resizable=0;points=[];" vertex="1" connectable="0" parent="nxbGZsxzQlJPxJBwquyM-6">
          <mxGeometry x="-0.0254" y="-2" relative="1" as="geometry">
            <mxPoint as="offset" />
          </mxGeometry>
        </mxCell>
      </root>
    </mxGraphModel>
  </diagram>
</mxfile>
